<svg width="12" height="12" viewBox="0 0 12 12" fill="none" xmlns="http://www.w3.org/2000/svg">
<path d="M7.19671 0.21312C5.51596 3.32793 3.29073 4.67603 0.296774 5.5544C0.213397 5.57835 0.139766 5.62812 0.0864744 5.69657C0.033183 5.76501 0.00297915 5.8486 0.000209136 5.9353C-0.00256088 6.022 0.0222457 6.10735 0.0710594 6.17906C0.119873 6.25076 0.190177 6.30514 0.271855 6.33435C2.61669 7.19529 4.02085 8.51472 4.03704 11.4215C4.03728 11.5121 4.06775 11.6001 4.12362 11.6715C4.17948 11.7429 4.25756 11.7936 4.3455 11.8156C4.43343 11.8376 4.52619 11.8297 4.60911 11.7931C4.69203 11.7564 4.76036 11.6932 4.80329 11.6133C6.47906 8.49977 8.71051 7.15043 11.7032 6.27206C11.7866 6.24811 11.8602 6.19834 11.9135 6.12989C11.9668 6.06145 11.997 5.97786 11.9998 5.89116C12.0026 5.80446 11.9778 5.71911 11.9289 5.6474C11.8801 5.5757 11.8098 5.52132 11.7281 5.49211C9.37957 4.63117 7.9804 3.31174 7.9642 0.404992C7.96339 0.314487 7.93255 0.226812 7.87653 0.155723C7.82051 0.0846339 7.74248 0.0341536 7.65467 0.0122019C7.56686 -0.00974979 7.47425 -0.0019308 7.39137 0.0344321C7.30849 0.0707951 7.24002 0.133644 7.19671 0.21312Z" fill="#E3FF17"/>
</svg>
